<svg width="56" height="56" viewBox="0 0 56 56" fill="none" xmlns="http://www.w3.org/2000/svg">
<g clip-path="url(#clip0)">
<path d="M31.5003 1.87251C34.6241 1.94251 35.4466 9.24876 35.4466 9.24876H7.07031C7.07031 9.24876 7.28906 3.50001 9.04781 2.62501C10.8066 1.75001 26.2503 1.75001 31.5003 1.87251Z" fill="#F7B519"/>
<path d="M8.29528 52.0363C10.1065 53.8388 11.489 53.8387 16.8703 53.6025C22.2515 53.3662 33.9328 53.375 33.9328 53.375C31.6881 53.0075 29.6556 51.831 28.219 50.0675C26.6965 48.0025 26.224 45.6925 26.469 45.8937H7.07028C7.07028 45.8937 6.94778 50.6975 8.29528 52.0363Z" fill="#F7B519"/>
<path d="M33.8102 52.9025H14.3327C12.5827 52.9025 10.8327 53.0862 9.42394 51.7212C8.28644 50.5837 8.24269 49.2012 8.24269 47.7312V7.27999C8.24269 7.01749 8.24269 6.75499 8.24269 6.50124C8.24532 5.74504 8.45773 5.0044 8.8563 4.36176C9.25486 3.71911 9.82394 3.19967 10.5002 2.86124C11.7864 2.21374 13.5714 2.44999 14.9714 2.44999H22.6627C26.6352 2.44999 30.6077 2.38874 34.5802 2.44999C35.4865 2.46091 36.3635 2.77287 37.0732 3.33678C37.7828 3.90069 38.2848 4.68454 38.5002 5.56499C38.6007 6.10127 38.636 6.64774 38.6052 7.19249V29.0675C38.6052 29.2531 38.6789 29.4312 38.8102 29.5625C38.9415 29.6937 39.1195 29.7675 39.3052 29.7675C39.4908 29.7675 39.6689 29.6937 39.8002 29.5625C39.9314 29.4312 40.0052 29.2531 40.0052 29.0675V9.11749C40.0052 7.53374 40.1889 5.77499 39.5414 4.28749C39.1325 3.38036 38.4853 2.60107 37.6687 2.03252C36.8521 1.46397 35.8966 1.12744 34.9039 1.05874C34.4664 1.05874 34.0289 1.05874 33.5914 1.05874H12.6352C11.6566 1.0319 10.6854 1.23573 9.80019 1.65374C8.91769 2.11527 8.1767 2.80724 7.65596 3.65614C7.13522 4.50505 6.85417 5.47916 6.84269 6.47499C6.84269 7.23624 6.84269 7.98874 6.84269 8.74999V39.7162C6.84269 42.7525 6.79894 45.7887 6.84269 48.825C6.85423 50.2817 7.44102 51.6749 8.47521 52.7009C9.5094 53.7268 10.9072 54.3025 12.3639 54.3025H33.8102C33.9958 54.3025 34.1739 54.2287 34.3052 54.0975C34.4364 53.9662 34.5102 53.7881 34.5102 53.6025C34.5102 53.4168 34.4364 53.2388 34.3052 53.1075C34.1739 52.9762 33.9958 52.9025 33.8102 52.9025Z" fill="#404852"/>
<path d="M7.54277 10.395H39.3053C39.4909 10.395 39.669 10.3212 39.8002 10.19C39.9315 10.0587 40.0053 9.88065 40.0053 9.695C40.0053 9.50934 39.9315 9.3313 39.8002 9.20002C39.669 9.06875 39.4909 8.995 39.3053 8.995H7.54277C7.35712 8.995 7.17907 9.06875 7.0478 9.20002C6.91652 9.3313 6.84277 9.50934 6.84277 9.695C6.84277 9.88065 6.91652 10.0587 7.0478 10.19C7.17907 10.3212 7.35712 10.395 7.54277 10.395Z" fill="#404852"/>
<path d="M7.54277 46.375H27.1253C27.3109 46.375 27.489 46.3012 27.6202 46.1699C27.7515 46.0387 27.8253 45.8606 27.8253 45.675C27.8253 45.4893 27.7515 45.3113 27.6202 45.18C27.489 45.0487 27.3109 44.975 27.1253 44.975H7.54277C7.35712 44.975 7.17907 45.0487 7.0478 45.18C6.91652 45.3113 6.84277 45.4893 6.84277 45.675C6.84277 45.8606 6.91652 46.0387 7.0478 46.1699C7.17907 46.3012 7.35712 46.375 7.54277 46.375Z" fill="#404852"/>
<path d="M15.8243 26.976L15.6803 24.288L17.9363 25.752L18.6083 24.6L16.2323 23.376L18.6083 22.152L17.9363 21L15.6803 22.44L15.8243 19.752H14.4803L14.6003 22.44L12.3443 21L11.6963 22.152L14.0723 23.376L11.6963 24.6L12.3443 25.752L14.6003 24.288L14.4803 26.976H15.8243Z" fill="#404852"/>
<path d="M24.1212 26.976L23.9772 24.288L26.2332 25.752L26.9052 24.6L24.5292 23.376L26.9052 22.152L26.2332 21L23.9772 22.44L24.1212 19.752H22.7772L22.8972 22.44L20.6412 21L19.9932 22.152L22.3692 23.376L19.9932 24.6L20.6412 25.752L22.8972 24.288L22.7772 26.976H24.1212Z" fill="#404852"/>
<path d="M32.418 26.976L32.274 24.288L34.53 25.752L35.202 24.6L32.826 23.376L35.202 22.152L34.53 21L32.274 22.44L32.418 19.752H31.074L31.194 22.44L28.938 21L28.29 22.152L30.666 23.376L28.29 24.6L28.938 25.752L31.194 24.288L31.074 26.976H32.418Z" fill="#404852"/>
<path d="M31 36.5L39 32.5L41.5 34L47.5 36.5L48 39.5L47 45.5L43.5 50L39 52L38 51.5L32.5 47L31 42.5V36.5Z" fill="#F7B519"/>
<path d="M45.7888 48.755C47.7925 46.7688 48.4138 43.9425 48.7025 41.2125C48.8645 39.592 48.8645 37.9593 48.7025 36.3388C48.6981 36.1545 48.6229 35.9791 48.4926 35.8487C48.3623 35.7184 48.1868 35.6432 48.0025 35.6388C46.1825 35.6388 44.3188 34.5013 42.7525 33.6175C41.6744 33.0043 40.6288 32.3355 39.62 31.6138C39.5145 31.5497 39.3935 31.5157 39.27 31.5157C39.1466 31.5157 39.0255 31.5497 38.92 31.6138C37.9113 32.3355 36.8657 33.0043 35.7875 33.6175C34.2563 34.4925 32.3925 35.63 30.5375 35.6388C30.3526 35.6411 30.1758 35.7155 30.0451 35.8463C29.9143 35.9771 29.8398 36.1538 29.8375 36.3388C29.4764 39.4261 29.8051 42.5552 30.8 45.5C31.7681 47.7866 33.4462 49.7009 35.5863 50.96C36.4291 51.5553 37.3254 52.0709 38.2638 52.5C38.645 52.7471 39.0973 52.8609 39.55 52.8238C40.3537 52.5597 41.1232 52.2014 41.8425 51.7563C43.2803 50.9383 44.6067 49.9384 45.7888 48.7813C46.4363 48.1513 45.4475 47.1625 44.8 47.7925C43.2478 49.3345 41.4035 50.5512 39.375 51.3713C38.9288 51.5375 39.375 51.3275 39.4625 51.45C39.4188 51.3713 39.0338 51.2925 38.955 51.2575C38.1914 50.9163 37.4544 50.5185 36.75 50.0675C34.8338 48.8513 32.9963 47.3463 32.1913 45.1675C31.5885 43.4065 31.2724 41.5601 31.255 39.6988C31.201 38.5782 31.2302 37.4551 31.3425 36.3388L30.6425 37.0388C32.6375 37.0388 34.6325 35.9275 36.33 34.965C37.4863 34.3122 38.6079 33.5996 39.69 32.83H38.99C40.06 33.6105 41.1699 34.3348 42.315 35C44.0125 35.9625 46.0075 37.065 48.0025 37.0738L47.3025 36.3738C47.4381 37.864 47.4381 39.3635 47.3025 40.8538C47.1188 43.33 46.585 45.99 44.7738 47.8013C44.6531 47.9344 44.5883 48.1089 44.5927 48.2885C44.5971 48.4682 44.6705 48.6392 44.7975 48.7663C44.9246 48.8933 45.0957 48.9667 45.2753 48.9711C45.4549 48.9755 45.6294 48.9107 45.7625 48.79L45.7888 48.755Z" fill="#404852"/>
<path d="M34.2337 43.0461L38.012 47.143C38.1713 47.2985 38.3872 47.3859 38.6124 47.3859C38.8376 47.3859 39.0535 47.2985 39.2129 47.143L44.5885 40.3776L45.3533 39.4143C45.5058 39.2553 45.5907 39.0454 45.5907 38.8275C45.5907 38.6095 45.5058 38.3996 45.3533 38.2406C45.1932 38.0864 44.9775 38 44.7528 38C44.5281 38 44.3124 38.0864 44.1524 38.2406L38.7767 45.0115L38.012 45.9804H39.2129L35.4289 41.8724C34.6925 41.0807 33.4973 42.2544 34.228 43.0461H34.2337Z" fill="#404852"/>
</g>
<defs>
<clipPath id="clip0">
<rect width="56" height="56" fill="white"/>
</clipPath>
</defs>
</svg>
