<svg viewBox="0 0 45 56.39" xmlns="http://www.w3.org/2000/svg"><path d="m26.11.87c3.3.08 4.17 7.81 4.17 7.81h-30.03s.23-6 2.09-7 18.18-.93 23.77-.81z" fill="#f7b519"/><path d="m1.54 54c1.92 1.91 3.38 1.91 9.08 1.66s18.06-.24 18.06-.24a9.81 9.81 0 0 1 -6-3.5c-1.62-2.19-2.12-4.66-1.87-4.42h-20.56s-.13 5.06 1.29 6.5z" fill="#f7b519"/><g fill="#404852"><path d="m25.59 54.89h-19.36a5 5 0 0 1 -2.63-.58 4.35 4.35 0 0 1 -2.12-3.71c0-2.88 0-5.76 0-8.65v-35.86a5.17 5.17 0 0 1 .23-1.7 4.3 4.3 0 0 1 4-2.9c4.12-.06 8.24 0 12.36 0h10.57a6.75 6.75 0 0 1 1.85.15 4.32 4.32 0 0 1 3.14 4.11v23.94a.74.74 0 0 0 1.48 0v-20.69a22.49 22.49 0 0 0 -.11-4.45 5.84 5.84 0 0 0 -4-4.32 7.88 7.88 0 0 0 -2.24-.23h-22c-.4 0-.8 0-1.2 0a5.79 5.79 0 0 0 -5 3.2 8.58 8.58 0 0 0 -.6 4v43.43a5.83 5.83 0 0 0 2.75 4.87c1.73 1.1 3.8.87 5.75.87h17.13a.74.74 0 0 0 0-1.48z"/><path d="m28 54.89h-2.41a.74.74 0 1 0 0 1.48h2.41a.74.74 0 1 0 0-1.48z"/><path d="m29.36 54.89h-1.36a.73.73 0 0 0 -.52.22.74.74 0 0 0 -.22.52.73.73 0 0 0 .74.74h1.34a.8.8 0 0 0 .53-.21.79.79 0 0 0 .22-.53.77.77 0 0 0 -.22-.52.75.75 0 0 0 -.53-.22z"/><path d="m.74 9.89h33.63a.74.74 0 0 0 0-1.48h-33.63a.74.74 0 0 0 0 1.48z"/><path d="m.74 48h20.75a.75.75 0 0 0 0-1.49h-20.75a.75.75 0 0 0 0 1.49z"/><path d="m39 50.68q-.36.21-.75.39a.61.61 0 0 0 -.2.19.66.66 0 0 0 -.14.26.57.57 0 0 0 0 .29.49.49 0 0 0 .09.28l.11.15a.92.92 0 0 0 .33.19h.2a.69.69 0 0 0 .37-.1q.39-.18.75-.39a.55.55 0 0 0 .21-.19.58.58 0 0 0 .13-.26.48.48 0 0 0 0-.29.57.57 0 0 0 -.08-.28l-.12-.15a.78.78 0 0 0 -.33-.19h-.19a.72.72 0 0 0 -.38.1z"/><path d="m42.81 46.32v.08c0-.1 0-.12 0 0s0 .11-.07.16l-.15.33c-.11.21-.23.42-.35.63s-.25.41-.39.6l-.21.3-.06.07-.11.14a.79.79 0 0 0 -.22.52.75.75 0 0 0 1.27.53 11.3 11.3 0 0 0 1.71-2.87.75.75 0 0 0 -.52-.92.75.75 0 0 0 -.57.08.85.85 0 0 0 -.35.44z"/><path d="m45 43.55a10.62 10.62 0 1 0 -8.33 9.62c.93-.19.53-1.62-.4-1.43a9.16 9.16 0 1 1 7.24-8.19c-.06 1 1.42 1 1.49 0z"/><path d="m28.86 43.71 3.46 3.95a.74.74 0 0 0 1 0l6.06-6.93.86-1c.63-.71-.42-1.77-1-1l-6.06 6.93-.86 1h1l-3.46-4c-.63-.72-1.68.33-1.05 1.05z"/></g><circle cx="17.98" cy="25.18" fill="#f7b519" r="9.22"/><path d="m22.86 34.6a10.61 10.61 0 1 1 3.72-15.6c.52.71 1.72 0 1.19-.7a12 12 0 0 0 -18.77-1.01 12 12 0 0 0 14.6 18.5c.8-.4.1-1.6-.69-1.19z" fill="#404852"/><path d="m26.82 31c-.15.23-.32.46-.49.68l.11-.14a12.45 12.45 0 0 1 -1.14 1.27.69.69 0 0 0 0 1 .7.7 0 0 0 1 0 11.87 11.87 0 0 0 1.7-2.07.69.69 0 1 0 -1.19-.7z" fill="#404852"/><path d="m28.58 25.18v.89.37s0 .29 0 .12v.19a11.36 11.36 0 0 1 -.37 1.61.69.69 0 0 0 .48.85.71.71 0 0 0 .85-.49 12.1 12.1 0 0 0 .46-3.54.69.69 0 0 0 -.69-.69.7.7 0 0 0 -.69.69z" fill="#404852"/><path d="m17.06 17.34v8.3a.7.7 0 0 0 1 .6l6.45-2.77a.69.69 0 0 0 .25-.94.71.71 0 0 0 -.95-.25l-6.41 2.77 1 .59v-8.3a.69.69 0 0 0 -1.38 0z" fill="#404852"/><path d="m9.45 26.1h2.76a.7.7 0 0 0 .7-.69.71.71 0 0 0 -.7-.69h-2.76a.69.69 0 1 0 0 1.38z" fill="#404852"/><path d="m17.52 31.64v2.76a.69.69 0 1 0 1.38 0v-2.76a.69.69 0 1 0 -1.38 0z" fill="#404852"/></svg>