<svg height="62" viewBox="0 0 239 62" width="239" xmlns="http://www.w3.org/2000/svg"><g fill="#b1b9c3"><path d="m33.3688767 13.3593677-.0496696.2786305c-.8780863 4.9337121-2.6466764 7.6241825-5.5328307 8.848737-.7060169.2999271-1.4475121.450778-2.2014246.450778-3.9451797 0-5.8521348-3.7180313-6.5368648-4.9479099-.6474777-1.1659888-1.2488338-2.5289712-1.8838942-3.9718158-1.6515119-3.7553003-4.1988492-8.28792657-6.8614907-8.28792657-.67940822 0-1.62845099.11535658-2.54556336.61760139-1.86260737 1.02046204-1.84309434 1.9983309-1.88921605 2.36037307-.40090405 3.21401181 2.42493737 6.27007381 6.31335191 9.89759461.4470258.4188331.925982.8500892 1.4333208 1.3061914 2.2741548 2.0462482 4.7097357 4.3658029 6.3612475 7.1734046.9987123 1.696629 1.6852161 3.4269778 1.7951987 5.1431287.1259477 1.9912321-.4718606 3.9789147-1.5326598 5.9098063-.6865038 1.2511753-1.4705728 2.248566-2.4213895 3.3311431-2.6573199 3.0241171-3.6258756 5.6311758-2.5774938 7.9968731.5534605 1.2476258 1.8058421 2.2805109 2.9996848 2.4792791.5197561.0851864 1.0075819.1277796 1.4528337.1277796 3.4733192 0 5.0982224-2.2787361 5.869874-8.6410952.321078-2.642553 1.6408684-5.3827155 2.8595457-7.5585181 1.6479641-2.9407054 4.0285537-4.2699682 7.0725862-4.5006813.2252868-.0177472.4523475-.0266207.6723126-.0266207 2.2493201 0 4.2165882.8820341 5.6871611 2.5502677 1.1228861 1.277796 1.8643812 2.7419372 2.2723809 4.7668889.3281737 1.6256404.2536694 3.5671804.0461217 5.2087932-.0638608.4969207-.140139 1.0186873-.219965 1.5723989-.3955823 2.7330636-.986295 7.3082831.3388171 8.9339235.1454608.1774716.5303996.6495463 1.8714769.7258591.1773912.0106483.3512346.0159724.5197562.0159724 1.9069551 0 2.7087632-.9370504 3.1469194-1.421548 1.2647991-1.4002514 2.050642-4.1883312 1.6515119-8.1317515-.0691826-.6797165-.2483477-1.6806566-.4381563-2.7383878-.441704-2.4491089-1.0182253-5.5122697-.9454949-8.3766624.1028869-4.0410297 1.184973-6.5717756 3.7642407-8.1051307.8390603-.4986954 1.8750247-.7507052 2.8063284-.7507052 1.7508509 0 3.5300844.5856565 5.0113007 2.2929339 1.0891818 1.2547247 1.8466421 2.6940198 2.2014247 3.4394008.5623296 1.1801865.842608 2.3585983 1.2506073 3.4961917.7751996 2.1704784 1.4173558 4.2256003 2.8311634 5.5530883.9295298.8731606 1.9051811 1.2139062 2.7460156 1.2139062.7556862 0 1.6532856-.4348056 2.3380157-1.2068073 1.220451-1.3754054 1.7721378-3.1199518 1.640868-5.1839473-.1756172-2.7472613-1.3038247-5.7944497-3.3083453-7.5425456-.9721037-.8483145-2.7069894-1.4534929-4.09951-2.2432418-2.0204852-1.1446922-3.69151-2.1048139-5.2028829-3.8830799-1.9725901-2.3177799-2.4994419-5.3312487-1.5699121-8.5115409.0443478-.1508509.0886956-.3017018.1348173-.4543275.8745387-2.96022726 1.0466076-4.28061647.1667476-5.10408496-.3920344-.36736635-1.2896338-.42238256-1.3907468-.42238256-.5002431 0-1.16546.25378448-1.6923118.86251227-.502017.58210706-1.0022601 1.46059182-1.5308858 2.39231795-.7326256 1.2866696-1.5628163 2.7472614-2.7123111 3.9451951-1.5521728 1.6149921-3.2693194 2.5715644-5.3785004 2.617707-.0496696.0017747-.101113.0017747-.1507825.0017747-3.4342932 0-5.4228482-2.3745708-6.2157868-3.2282095-.6332865-.6832659-1.4599294-1.8386064-2.0949898-2.8501949-.6403821-1.02578617-1.3925207-2.16692899-2.1233723-2.99217222-2.1694942-2.45265834-3.4342932 1.53335518-4.1491796 5.57083552m-5.3696309-.8838089.0478956-.2733064c.5534604-3.13060006 1.1122427-7.95960399 4.622814-10.07684092 1.1938426-.72053494 2.4267113-.98674243 3.6613539-.98674243 4.1562752 0 6.8295602 4.11911726 8.5200981 6.68890691.9419472 1.43219635 1.7135988 3.20158874 2.9606587 3.20158874l.0230609-.0017747c1.1228862-.024846 1.9459812-.9530228 3.4289714-3.55830681.6457039-1.13581864 1.4528338-2.30713158 2.3273722-3.32226948 1.6603814-1.92024338 3.3260846-2.56091608 5.5470221-2.56091608 1.7455291 0 3.9877537.64244742 5.3447963 1.9113698 1.6710249 1.56352534 2.2954418 3.60267475 2.2120675 6.08727799-.0603125 1.79956268-.5711995 3.10930358-1.0235469 4.63378508-.0425738.1473015-.0851477.294603-.1277216.438355-.478956 1.6380634-.0372521 3.043639.4150952 3.5742792.842608.9920667 2.4036506 1.8758756 4.0551627 2.8111512 1.584103.8980066 3.2214234 1.2671477 4.6387792 2.5023504 3.1646584 2.7632338 5.160309 6.9994823 5.4334915 11.2836483.2306087 3.6221966-.5605561 6.600171-2.8169716 9.1451147-1.8147117 2.0462482-4.0729014 3.1270506-6.5333175 3.1270506-2.3646243 0-4.5412139-.8749353-6.5847601-2.7951786-2.4391286-2.2911592-3.318989-5.0029262-4.2183623-7.5176996-.3742953-1.0488575-.7006951-2.0391494-1.1353035-2.9531284-.6350603-1.3345869-1.0838601-2.5484931-2.0559637-2.5484931s-1.0377384 2.154506-1.0678949 3.3275937c-.0567651 2.2698625.5445909 4.9940525.9383994 7.1822781.219965 1.2245545.4115475 2.2805108.502017 3.1856163.9632341 9.5231294-3.5460496 15.8304722-10.292236 15.8304722-.2802781 0-.5676518-.0088736-.8567994-.0266207-3.2231976-.1863453-5.0982224-1.6433876-6.0791956-2.8448708-2.9482413-3.6115483-2.0967637-9.3154875-1.4954076-13.4700991.0762782-.5288655.1490086-1.0275609.2057738-1.4747895.2696345-2.1190116-.2110955-4.3533799-1.1193383-5.3844902-.3601041-.4081848-.7397212-.5732335-1.3109208-.5732335-.0727304 0-.1507825.0017747-.2288347.0088736-2.2191636.1685981-3.0990238 2.5005757-4.4507445 7.709369-.7574604 2.9194088-1.4013903 6.0766297-2.9411458 8.5488099-2.0169376 3.2370831-5.0875789 4.7402681-8.8535935 4.7402681-.7610081 0-1.5716858-.0709887-2.4036504-.2076418-1.5911988-.2626581-3.1682064-1.0080391-4.5625011-2.154506-1.2949555-1.06483-2.3557548-2.4331365-2.98549343-3.8546845-1.11756442-2.5200976-1.13885136-5.7323347-.06386086-8.4405522.83373859-2.1030392 1.79874659-3.2193359 3.02274559-4.8822454.7751995-1.0541817 1.7863292-2.2592143 2.2883462-3.1731933.9933906-1.810211 1.2204513-3.3914835.1028869-5.292205-1.1956165-2.0320505-3.416554-4.0303814-5.37672649-5.7944497-.52862572-.4756241-1.02532103-.9228527-1.51137282-1.3771801-4.32834471-4.0374803-8.87488054-8.5931779-8.11919413-14.61834079.24302591-1.953963 1.17078176-4.98695367 4.86938777-7.01545477 1.78632914-.97964357 3.53895395-1.196159 5.20997887-1.196159 2.9872673 0 5.6197524 1.2494005 7.8229508 4.26464403 1.6231293 2.22017048 2.8630936 4.93903632 3.8866407 7.36684873 1.5379814 3.650592 4.2449708 11.879953 6.1270912.8057213" transform="translate(0 .432143)"/><path d="m189.009056 37.8761903c-.246574-.5359644 0-.9068801.619095-.9068801h2.102085c.329948 0 .576522.2058671.700696.4543274l5.809561 12.6164604h.042574l5.479613-12.6164604c.124174-.2484603.411547-.4543274.700695-.4543274h1.855512c.617321 0 .906469.4117342.617321.9476986l-10.104201 21.3267696c-.1224.2484603-.411548.4951459-.700695.4951459h-1.523791c-.619095 0-.949043-.4525527-.659895-1.0311103l2.726502-5.2868809z"/><path d="m160.420872 50.9095317c2.061284 0 3.833422-.9885172 4.534118-2.0196275v-3.0578368c-.493147-.5057942-2.000973-1.2653729-3.81391-1.2653729-2.30786 0-3.893737.9814183-3.893737 3.125276 0 1.6504864 1.401391 3.2175612 3.173529 3.2175612m1.071442-8.7014356c1.772138 0 3.503476 1.1162968 3.503476 1.1162968.0408-3.0525126-1.197391-4.4545387-3.54605-4.4545387-2.267059 0-3.336728.6193761-4.078223.9086549-.413322.1632739-.659895-.0425932-.784069-.413509l-.329948-1.0311104c-.164974-.4933712.083374-.7418315.454122-.9068801.246573-.1224555 1.770364-1.0719289 4.860518-1.0719289 4.204171 0 6.102257 2.1438577 6.102257 6.9693122v9.1522136c0 .4135089-.370748.7844247-.782296.7844247h-1.080312c-.454121 0-.576521-.2484603-.700695-.6193761l-.033705-1.1127473c-.865669.8660617-2.554432 1.8545788-5.110639 1.8545788-2.884381 0-5.357214-2.392318-5.357214-5.6915161 0-3.1323748 2.637807-5.4838744 6.882778-5.4838744"/><path d="m136.582158 43.5357616h-9.075333c-.253669 0-.283825-.2200649-.287373-.2821799.406226-2.3834444 2.458642-4.1936554 5.080483-4.1936554 2.369947 0 4.253841 1.9326664 4.523475 4.1652599.001774.1047083-.02306.3105754-.241252.3105754m-4.282223-6.9586639c-4.920831 0-7.971959 3.9469698-7.971959 8.5452606 0 4.6799277 3.051128 8.5452605 7.971959 8.5452605 2.806329 0 5.002432-1.0985496 5.978083-1.872326.610225-.4472287.447026-.6921396.1632-1.0577312-.2448-.3247731-.4488-.6105025-.691826-.9352756-.324625-.4472286-.569426-.2449109-1.138851.0816369-.934852.5696841-2.318503 1.2192303-4.02678 1.2192303-2.767302 0-5.080483-2.3550489-5.412205-4.9514593.010644-.2484603.204-.3371961.204-.3371961h11.471887c.365427 0 .691826-.2857294.732626-.6921395.0408-.2839547.0816-.8128203.0816-1.0985496 0-4.2717429-3.091928-7.446711-7.361734-7.446711"/><path d="m102.895397 50.2495146c-.204-.3247732-.365427-.5696841-.975652-.2449109 0 0-.918886 1.0044896-2.5171808 1.0044896-1.6000683 0-1.8289028-1.9273422-1.7951983-2.0622207v-8.9818408c.0141911-.1810211.1028864-.5057943.5410427-.5395138h4.1775624c.447026 0 .773426-.3655917.773426-.7720018v-.8962319c0-.4472286-.3264-.7720017-.773426-.7720017h-4.1048316c-.5037912 0-.5978083-.3531686-.6137735-.544838v-4.2557705c0-.40641-.3246263-.7720017-.7308522-.7720017h-1.2559291c-.4079999 0-.8142258.3655917-.8142258.7720017v4.2504464s-.0159652.5075689-.4984688.5501621h-1.5805554c-.4470262 0-.7734255.3247731-.7734255.7720017v.8962319c0 .4064101.3263993.7720018.7734255.7720018h1.6160334c.3618779.0514667.4417039.369141.4576691.4933711v9.2728944c0 2.5218723 1.445738 4.4758353 4.6990924 4.4758353 1.9122765 0 3.1504675-1.0169126 3.7198925-1.384279.447026-.2839546.569426-.5288655.2856-1.0169126z"/><path d="m114.617405 36.5778076c-2.398328 0-3.863579 1.1411429-4.484449 1.7622937h-.001773s-.347687.3389708-.347687-.1739223v-7.7377644c0-.4064101-.3672-.7720017-.773425-.7720017h-1.261252c-.406226 0-.773425.3655916-.773425.7720017v22.0597275c0 .4064102.367199.7720018.773425.7720018h1.261252c.406225 0 .773425-.3655916.773425-.7720018v-8.9268246c0-3.0471884 2.261737-3.9309973 3.73231-4.1847817.283826-.0443679.581844-.0727634.8976-.0727634 2.277702 0 4.276901 1.5049596 4.276901 4.5982907v8.586079c0 .4064102.365426.7720018.771652.7720018h1.302051c.406226 0 .771651-.3655916.771651-.7720018v-8.586079c0-4.7615647-2.891476-7.3242555-6.918256-7.3242555"/><path d="m179.063974 50.9102416c-2.267059 0-3.998397-1.4428446-3.998397-1.4428446v-8.4937937s1.525565-2.0214023 4.204171-2.0214023c3.297702 0 5.194014 2.8466455 5.194014 6.062432 0 3.2974235-2.22626 5.8956086-5.399788 5.8956086m.494922-14.554451c-2.332694 0-3.946954 1.0666047-4.534119 1.5244816v-.1277796c0-.4117343-.370748-.78265-.782295-.78265h-1.27899c-.411548 0-.782295.3709157-.782295.78265v.701013 20.5033011c0 .4117343.370747.78265.782295.78265h1.27899c.411547 0 .782295-.3709157.782295-.78265v-6.644539s1.690538 1.3612077 4.409945 1.3612077c4.534119 0 7.91342-3.7943442 7.91342-8.6180239 0-4.7420429-3.297702-8.6996609-7.789246-8.6996609"/><path d="m150.433926 36.3554357c-2.639581 0-4.145632 1.2973178-4.699093 1.8918479v-.495146c0-.4117342-.370748-.78265-.782295-.78265h-1.277216c-.413322 0-.784069.3709158-.784069.78265v14.7248238c0 .4117342.370747.7826501.784069.7826501h1.277216c.411547 0 .784069-.3709159.784069-.7826501v-11.0085672s1.358817-2.3089063 4.491545-2.3089063c.617321 0 1.236416.1650487 1.607164.3300973.411547.1650486.782295.1650486.989843-.3709157l.493147-1.4020262c.413321-1.1553405-1.647964-1.3612076-2.88438-1.3612076"/><path d="m204.539476 14.0978272h-9.075333c-.253669 0-.283825-.2200648-.287374-.2821799.406226-2.3834444 2.458642-4.19365536 5.080484-4.19365536 2.369946 0 4.25384 1.93266636 4.523475 4.16525986.001774.1047083-.023061.3105754-.241252.3105754m-4.282223-6.95866378c-4.920832 0-7.97196 3.94696978-7.97196 8.54526048 0 4.6799277 3.051128 8.5452605 7.97196 8.5452605 2.806328 0 5.002431-1.0985496 5.978083-1.872326.610225-.4472286.447025-.6921395.163199-1.0577312-.2448-.3247731-.4488-.6105024-.691825-.9352756-.324626-.4472286-.569426-.2449109-1.138852.0816369-.934851.5696841-2.318503 1.2192304-4.02678 1.2192304-2.767301 0-5.080483-2.355049-5.412204-4.9514594.010643-.2484603.204-.3371961.204-.3371961h11.471887c.365426 0 .691826-.2857294.732626-.6921395.040799-.2839547.0816-.8128202.0816-1.0985496 0-4.2717429-3.091928-7.44671088-7.361734-7.44671088"/><path d="m237.845556 20.8117576c-.204-.3247731-.365426-.569684-.975651-.2449108 0 0-.918887 1.0044896-2.517182 1.0044896-1.600068 0-1.828902-1.9273423-1.795198-2.0622207v-8.9818408c.014191-.1810211.102887-.5057943.541043-.53951386h4.177562c.447026 0 .773426-.36559162.773426-.77200175v-.89623186c0-.44722863-.3264-.77200174-.773426-.77200174h-4.104831c-.503792 0-.597809-.35316859-.613774-.54483801v-4.25577044c0-.4064101-.324626-.77200173-.730851-.77200173h-1.25593c-.408 0-.814226.36559163-.814226.77200173v4.25044632s-.015965.50756896-.498469.55016213h-1.580555c-.447026 0-.773426.32477311-.773426.77200174v.89623186c0 .40641013.3264.77200175.773426.77200175h1.616033c.361878.05146676.441704.36914106.457669.49337116v9.2728944c0 2.5218722 1.445739 4.4758353 4.699093 4.4758353 1.912277 0 3.150467-1.0169126 3.719893-1.384279.447026-.2839546.569426-.5288655.2856-1.0169126z"/><path d="m218.207821 7.13987325c-2.398329 0-3.86358 1.14114282-4.484449 1.76229365s-.349461.33897088-.349461-.17392226v-.41705837c0-.40641012-.3672-.77200174-.773426-.77200174h-1.261251c-.406225 0-.773425.36559162-.773425.77200174v14.73902143c0 .4064102.3672.7720018.773425.7720018h1.261251c.406226 0 .773426-.3655916.773426-.7720018v-8.9268246c0-3.0471884 2.261738-3.9309973 3.73231-4.18478173.283826-.0443679.581843-.07276337.8976-.07276337 2.277703 0 4.276901 1.5049597 4.276901 4.5982908v8.5860789c0 .4064102.365426.7720018.771652.7720018h1.302051c.406226 0 .773425-.3655916.773425-.7720018v-8.5860789c0-4.76156475-2.89325-7.32425555-6.920029-7.32425555"/><path d="m89.5156673 21.4715973c2.0612855 0 3.8334233-.9885172 4.534118-2.0196275v-3.0578367c-.4931471-.5057943-2.0009723-1.265373-3.8139099-1.265373-2.3078594 0-3.89551.9814183-3.89551 3.125276 0 1.6504864 1.4031641 3.2175612 3.1753019 3.2175612m1.0714425-8.7014356c1.7721378 0 3.5034759 1.1162968 3.5034759 1.1162968.0407997-3.0525126-1.1973906-4.45453872-3.5478239-4.45453872-2.2652849 0-3.3349539.61937612-4.0764489.90865492-.4133217.1632739-.659895-.0425932-.7840689-.413509l-.3299475-1.03111035c-.1649737-.49337119.0833736-.74183155.4541214-.90688017.2465733-.12245545 1.7703637-1.07192885 4.8605179-1.07192885 4.2041712 0 6.1022565 2.1438577 6.1022565 6.96931217v9.1522136c0 .4135089-.3707478.7844247-.7822948.7844247h-1.0803125c-.4541214 0-.5765213-.2484603-.7006953-.6193761l-.0337039-1.1127473c-.865669.8660617-2.5544332 1.8545789-5.1106399 1.8545789-2.8843807 0-5.3572138-2.3923181-5.3572138-5.6915162 0-3.1323748 2.6378068-5.4838744 6.8827777-5.4838744"/><path d="m124.228636 21.4715973c2.061286 0 3.833424-.9885172 4.534119-2.0196275v-3.0578367c-.493147-.5057943-2.000972-1.265373-3.81391-1.265373-2.307859 0-3.893736.9814183-3.893736 3.125276 0 1.6504864 1.40139 3.2175612 3.173527 3.2175612m1.071444-8.7014356c1.772137 0 3.503475 1.1162968 3.503475 1.1162968.0408-3.0525126-1.19739-4.45453872-3.546049-4.45453872-2.26706 0-3.336728.61937612-4.078223.90865492-.413322.1632739-.659896-.0425932-.784069-.413509l-.329948-1.03111035c-.164974-.49337119.083374-.74183155.454121-.90688017.246574-.12245545 1.770364-1.07192885 4.860519-1.07192885 4.20417 0 6.102256 2.1438577 6.102256 6.96931217v9.1522136c0 .4135089-.370748.7844247-.782295.7844247h-1.080312c-.454122 0-.576522-.2484603-.700696-.6193761l-.033704-1.1127473c-.865669.8660617-2.554433 1.8545789-5.110639 1.8545789-2.884381 0-5.357214-2.3923181-5.357214-5.6915162 0-3.1323748 2.637807-5.4838744 6.882778-5.4838744"/><path d="m159.082455 20.8117576c-.204-.3247731-.365426-.569684-.975651-.2449108 0 0-.918887 1.0044896-2.517181 1.0044896-1.600069 0-1.828903-1.9273423-1.795199-2.0622207v-8.9818408c.014191-.1810211.102887-.5057943.541043-.53951386h4.177562c.447026 0 .773426-.36559162.773426-.77200175v-.89623186c0-.44722863-.3264-.77200174-.773426-.77200174h-4.104832c-.50379 0-.597808-.35316859-.613773-.54483801v-4.25577044c0-.4064101-.324626-.77200173-.730852-.77200173h-1.255929c-.408 0-.814226.36559163-.814226.77200173v4.25044632s-.015965.50756896-.496695.55016213h-1.58233c-.447025 0-.773425.32477311-.773425.77200174v.89623186c0 .40641013.3264.77200175.773425.77200175h1.616035c.361877.05146676.441703.36914106.457669.49337116v9.2728944c0 2.5218722 1.445738 4.4758353 4.699092 4.4758353 1.912277 0 3.150467-1.0169126 3.719893-1.384279.447025-.2839546.569425-.5288655.285599-1.0169126z"/><path d="m107.772944 21.4723072c-2.267059 0-3.998397-1.4428446-3.998397-1.4428446v-8.4937937s1.525565-2.02140229 4.204171-2.02140229c3.297702 0 5.194014 2.84664549 5.194014 6.06243199 0 3.2974235-2.226259 5.8956086-5.399788 5.8956086m.494922-14.55445097c-2.332694 0-3.946954 1.06660466-4.534119 1.5244816v-.12777964c0-.41173425-.370748-.78264999-.782295-.78264999h-1.27899c-.411548 0-.782295.37091574-.782295.78264999v.70101311 20.5033011c0 .4117342.370747.7826499.782295.7826499h1.27899c.411547 0 .782295-.3709157.782295-.7826499v-6.6445391s1.690538 1.3612077 4.409945 1.3612077c4.534119 0 7.91342-3.7943442 7.91342-8.6180239 0-4.7420428-3.297702-8.69966087-7.789246-8.69966087"/><path d="m143.092414 6.91750128c-2.639581 0-4.145632 1.29731786-4.699092 1.89184795v-.49514598c0-.41173425-.370747-.78264999-.782295-.78264999h-1.277216c-.413322 0-.784069.37091574-.784069.78264999v14.72482375c0 .4117343.370747.7826501.784069.7826501h1.277216c.411548 0 .782295-.3709158.782295-.7826501v-11.0085672s1.36059-2.30890628 4.493318-2.30890628c.617322 0 1.236417.16504868 1.607164.33009728.411548.1650487.782296.1650487.989843-.37091572l.493148-1.40202615c.413321-1.15534053-1.647964-1.36120765-2.884381-1.36120765"/><path d="m182.524166 7.13987325c-2.501215 0-4.5625 1.29199374-5.765213 3.29564875-1.15659-2.15628065-3.322536-3.29564875-5.997595-3.29564875-2.398329 0-3.86358 1.14114282-4.484449 1.76229365s-.349461.33897088-.349461-.17392226v-.41705837c0-.40641012-.365425-.77200174-.773425-.77200174h-1.259478c-.408 0-.773425.36559162-.773425.77200174v14.73902143c0 .4064102.365425.7720018.773425.7720018h1.259478c.408 0 .773425-.3655916.773425-.7720018v-8.9268246c0-3.0471884 2.263512-3.9309973 3.734085-4.18478173.283825-.0443679.580069-.07276337.897598-.07276337 2.277704 0 4.275128 1.5049597 4.275128 4.5982908v8.5860789c0 .4064102.365426.7720018.773426.7720018h1.309147c.406225 0 .773425-.3655916.773425-.7720018v-8.9268246c0-3.0471884 2.261737-3.9309973 3.732311-4.18478173.283825-.0443679.581843-.07276337.897598-.07276337 2.277704 0 4.276902 1.5049597 4.276902 4.5982908v8.5860789c0 .4064102.365426.7720018.771652.7720018h1.302051c.406226 0 .771651-.3655916.771651-.7720018v-8.5860789c0-4.76156475-2.891476-7.32425555-6.918256-7.32425555"/></g></svg>