<svg viewBox="0 0 45 48.81" xmlns="http://www.w3.org/2000/svg"><path d="m43.56 17h-15.26a7.82 7.82 0 0 0 -2.16.15 4 4 0 0 0 -2.87 3.85c-.05 2.06 0 4.13 0 6.19v5.95h-13.1a5.6 5.6 0 0 0 -2.17.25 4 4 0 0 0 -2.5 3.69v2.05 8.49a.87.87 0 0 0 1.73 0v-10.1a2.5 2.5 0 0 1 1-2.34 3.22 3.22 0 0 1 1.83-.34h14a.88.88 0 0 0 .94-.84v-12.51a2.57 2.57 0 0 1 1.05-2.49 3.64 3.64 0 0 1 2.06-.34h15.45a.87.87 0 0 0 0-1.66z" fill="#404852"/><path d="m41.74 6.9c-.34-2.09-.69-4.18-1-6.27a.89.89 0 0 0 -1.1-.63l-5.9 1.49-.85.21a.87.87 0 0 0 .46 1.68l4.38-1.11-5.85 8.92h-12.64-1.87a.88.88 0 0 0 -.87.87q0 6.71-.05 13.42v1.07h-15.61a.87.87 0 0 0 0 1.73h16.47a.88.88 0 0 0 .87-.87q0-6.7.05-13.42v-1.08h11.15 2.49a1.31 1.31 0 0 0 1.29-.53c1.12-1.63 2.17-3.3 3.25-4.95l2.94-4.43.72 4.37a.87.87 0 1 0 1.67-.46z" fill="#404852"/><path d="m9.79 48.81v-8.56a3.1 3.1 0 0 1 3.09-3.09h14.69v-13a3.09 3.09 0 0 1 3.09-3.16h14.34v27.78z" fill="#f7b519"/></svg>