<svg xmlns="http://www.w3.org/2000/svg" width="36" height="39" viewBox="0 0 36 39">
    <g fill="none" fill-rule="evenodd">
        <rect width="30" height="35" x="1" y="1" stroke="#36B5BB" stroke-width="2" rx="5"/>
        <path fill="#36B5BB" fill-rule="nonzero" d="M25.102 9.895a2.979 2.979 0 0 1 .87 2.11 2.943 2.943 0 0 1-.87 2.099L12.357 26.857a.454.454 0 0 1-.087.069.683.683 0 0 1-.098.049l-5.498 1.992a.361.361 0 0 1-.088.024.547.547 0 0 1-.278-.03.392.392 0 0 1-.162-.111.435.435 0 0 1-.136-.24.507.507 0 0 1 .02-.278l2.001-5.498a.428.428 0 0 1 .117-.186L20.893 9.895c.286-.28.61-.495.971-.645.362-.15.74-.225 1.138-.225a2.943 2.943 0 0 1 2.1.87zm-13.38 16.171l11.075-11.064-2.793-2.793L8.93 23.273l-1.592 4.395 4.385-1.602zM24.399 13.4c.183-.188.324-.403.425-.644a1.952 1.952 0 0 0 0-1.514 1.994 1.994 0 0 0-1.07-1.07c-.24-.1-.49-.15-.751-.15-.267 0-.52.05-.762.15-.24.102-.452.247-.635.435l-.898.89 2.793 2.792.898-.889z"/>
        <circle cx="30" cy="33" r="6" fill="#F8B612"/>
        <path fill="#FFF" fill-rule="nonzero" d="M33.557 32.553c.122 0 .226.043.313.13.087.087.13.194.13.321a.427.427 0 0 1-.13.313.426.426 0 0 1-.313.13h-3.114v3.11a.427.427 0 0 1-.13.313A.426.426 0 0 1 30 37a.426.426 0 0 1-.312-.13.427.427 0 0 1-.13-.313v-3.11H26.45a.436.436 0 0 1-.32-.13.427.427 0 0 1-.131-.313c0-.127.043-.234.13-.321a.436.436 0 0 1 .321-.13h3.106v-3.11c0-.122.044-.226.13-.313A.426.426 0 0 1 30 29c.121 0 .226.043.312.13.087.087.13.191.13.313v3.11h3.115z"/>
    </g>
</svg>
